<?xml version="1.0" encoding="UTF-8"?>
<svg width="593" height="50" xmlns="http://www.w3.org/2000/svg">
  <rect x="10" y="0" width="3" height="50" fill="black"/>
  <rect x="22" y="0" width="3" height="50" fill="black"/>
  <rect x="28" y="0" width="9" height="50" fill="black"/>
  <rect x="40" y="0" width="9" height="50" fill="black"/>
  <rect x="52" y="0" width="3" height="50" fill="black"/>
  <rect x="58" y="0" width="3" height="50" fill="black"/>
  <rect x="64" y="0" width="9" height="50" fill="black"/>
  <rect x="76" y="0" width="9" height="50" fill="black"/>
  <rect x="88" y="0" width="3" height="50" fill="black"/>
  <rect x="100" y="0" width="3" height="50" fill="black"/>
  <rect x="106" y="0" width="9" height="50" fill="black"/>
  <rect x="118" y="0" width="3" height="50" fill="black"/>
  <rect x="124" y="0" width="3" height="50" fill="black"/>
  <rect x="130" y="0" width="9" height="50" fill="black"/>
  <rect x="148" y="0" width="3" height="50" fill="black"/>
  <rect x="154" y="0" width="9" height="50" fill="black"/>
  <rect x="166" y="0" width="3" height="50" fill="black"/>
  <rect x="172" y="0" width="9" height="50" fill="black"/>
  <rect x="184" y="0" width="3" height="50" fill="black"/>
  <rect x="196" y="0" width="3" height="50" fill="black"/>
  <rect x="202" y="0" width="3" height="50" fill="black"/>
  <rect x="208" y="0" width="3" height="50" fill="black"/>
  <rect x="214" y="0" width="9" height="50" fill="black"/>
  <rect x="232" y="0" width="3" height="50" fill="black"/>
  <rect x="238" y="0" width="9" height="50" fill="black"/>
  <rect x="250" y="0" width="9" height="50" fill="black"/>
  <rect x="268" y="0" width="3" height="50" fill="black"/>
  <rect x="274" y="0" width="3" height="50" fill="black"/>
  <rect x="280" y="0" width="3" height="50" fill="black"/>
  <rect x="286" y="0" width="9" height="50" fill="black"/>
  <rect x="298" y="0" width="9" height="50" fill="black"/>
  <rect x="310" y="0" width="9" height="50" fill="black"/>
  <rect x="322" y="0" width="3" height="50" fill="black"/>
  <rect x="334" y="0" width="3" height="50" fill="black"/>
  <rect x="340" y="0" width="3" height="50" fill="black"/>
  <rect x="346" y="0" width="3" height="50" fill="black"/>
  <rect x="352" y="0" width="3" height="50" fill="black"/>
  <rect x="358" y="0" width="9" height="50" fill="black"/>
  <rect x="370" y="0" width="9" height="50" fill="black"/>
  <rect x="388" y="0" width="3" height="50" fill="black"/>
  <rect x="394" y="0" width="3" height="50" fill="black"/>
  <rect x="400" y="0" width="3" height="50" fill="black"/>
  <rect x="412" y="0" width="9" height="50" fill="black"/>
  <rect x="424" y="0" width="9" height="50" fill="black"/>
  <rect x="436" y="0" width="3" height="50" fill="black"/>
  <rect x="442" y="0" width="3" height="50" fill="black"/>
  <rect x="448" y="0" width="3" height="50" fill="black"/>
  <rect x="460" y="0" width="9" height="50" fill="black"/>
  <rect x="472" y="0" width="9" height="50" fill="black"/>
  <rect x="484" y="0" width="3" height="50" fill="black"/>
  <rect x="490" y="0" width="9" height="50" fill="black"/>
  <rect x="502" y="0" width="3" height="50" fill="black"/>
  <rect x="514" y="0" width="3" height="50" fill="black"/>
  <rect x="520" y="0" width="3" height="50" fill="black"/>
  <rect x="526" y="0" width="9" height="50" fill="black"/>
  <rect x="538" y="0" width="3" height="50" fill="black"/>
  <rect x="550" y="0" width="3" height="50" fill="black"/>
  <rect x="556" y="0" width="9" height="50" fill="black"/>
  <rect x="568" y="0" width="9" height="50" fill="black"/>
  <rect x="580" y="0" width="3" height="50" fill="black"/>
</svg>